<svg xmlns="http://www.w3.org/2000/svg" xmlns:xlink="http://www.w3.org/1999/xlink" width="774" height="694.986" viewBox="0 0 774 694.986">
  <defs>
    <clipPath id="clip-path">
      <rect width="3.614" height="76.301" fill="none"/>
    </clipPath>
  </defs>
  <g id="Gruppe_13" data-name="Gruppe 13" transform="translate(-816 -14.014)">
    <g id="Gruppe_1" data-name="Gruppe 1" transform="translate(-0.338 -162.022)">
      <path id="Pfad_1" data-name="Pfad 1" d="M834.456,295.9H955.533v30.652H834.456Z" transform="translate(0 -25.878)" fill="none" stroke="#707070" stroke-width="1"/>
      <path id="Pfad_2" data-name="Pfad 2" d="M979.551,176.536l-75.208,94.147h65.684l68.64-94.147Z" transform="translate(-15.151 0)" fill="none" stroke="#707070" stroke-width="1"/>
      <path id="Pfad_3" data-name="Pfad 3" d="M898.349,335.04v49.591l-21.656,10.985" transform="translate(-9.157 -34.362)" fill="none" stroke="#707070" stroke-width="1"/>
      <line id="Linie_1" data-name="Linie 1" x2="34.461" y2="21.147" transform="translate(871.301 339.415)" fill="none" stroke="#707070" stroke-width="1"/>
      <line id="Linie_2" data-name="Linie 2" y1="8.615" x2="16.447" transform="translate(889.315 341.765)" fill="none" stroke="#707070" stroke-width="1"/>
    </g>
    <g id="Gruppe_2" data-name="Gruppe 2" transform="translate(-45 -175)">
      <path id="Pfad_4" data-name="Pfad 4" d="M1142.09,258.617v29.307l27.518,19.171" transform="translate(-23.024 -5.86)" fill="none" stroke="#707070" stroke-width="1"/>
      <path id="Pfad_5" data-name="Pfad 5" d="M1125.434,305.233,1097.7,320.52" transform="translate(-6.368 -23.352)" fill="none" stroke="#707070" stroke-width="1"/>
      <g id="Polygon_1" data-name="Polygon 1" transform="translate(1113 243)" fill="#fff">
        <path d="M 12.07866191864014 9.5 L 0.9213384985923767 9.5 L 6.5 0.9174438714981079 L 12.07866191864014 9.5 Z" stroke="none"/>
        <path d="M 6.5 1.834897994995117 L 1.842683792114258 9 L 11.15731620788574 9 L 6.5 1.834897994995117 M 6.5 0 L 13 10 L 0 10 L 6.5 0 Z" stroke="none" fill="#707070"/>
      </g>
      <g id="Polygon_2" data-name="Polygon 2" transform="matrix(-0.719, 0.695, -0.695, -0.719, 1155.628, 300.767)" fill="#fff">
        <path d="M 12.19396781921387 9.496299743652344 L 0.9261753559112549 9.496299743652344 L 6.560071468353271 0.9113129377365112 L 12.19396781921387 9.496299743652344 Z" stroke="none"/>
        <path d="M 6.560071468353271 1.822641372680664 L 1.852359771728516 8.996299743652344 L 11.26778411865234 8.996299743652344 L 6.560071468353271 1.822641372680664 M 6.560071468353271 0 L 13.12014102935791 9.996299743652344 L 1.9073486328125e-06 9.996299743652344 L 6.560071468353271 0 Z" stroke="none" fill="#707070"/>
      </g>
      <g id="Polygon_3" data-name="Polygon 3" transform="matrix(-0.616, -0.788, 0.788, -0.616, 1088.809, 306.851)" fill="#fff">
        <path d="M 12.19396781921387 9.496299743652344 L 0.9261753559112549 9.496299743652344 L 6.560071468353271 0.9113129377365112 L 12.19396781921387 9.496299743652344 Z" stroke="none"/>
        <path d="M 6.560071468353271 1.822641372680664 L 1.852359771728516 8.996299743652344 L 11.26778411865234 8.996299743652344 L 6.560071468353271 1.822641372680664 M 6.560071468353271 0 L 13.12014102935791 9.996299743652344 L 1.9073486328125e-06 9.996299743652344 L 6.560071468353271 0 Z" stroke="none" fill="#707070"/>
      </g>
    </g>
    <g id="Ellipse_1" data-name="Ellipse 1" transform="translate(1253 59)" fill="#fff" stroke="#707070" stroke-width="1">
      <circle cx="70" cy="70" r="70" stroke="none"/>
      <circle cx="70" cy="70" r="69.5" fill="none"/>
    </g>
    <g id="Gruppe_3" data-name="Gruppe 3" transform="translate(374 -151)">
      <path id="Pfad_4-2" data-name="Pfad 4" d="M1142.09,258.617v29.307l27.518,19.171" transform="translate(-23.024 -5.86)" fill="none" stroke="#707070" stroke-width="1"/>
      <path id="Pfad_5-2" data-name="Pfad 5" d="M1125.434,305.233,1097.7,320.52" transform="translate(-6.368 -23.352)" fill="none" stroke="#707070" stroke-width="1"/>
      <g id="Polygon_1-2" data-name="Polygon 1" transform="translate(1113 243)" fill="#fff">
        <path d="M 12.07866191864014 9.5 L 0.9213384985923767 9.5 L 6.5 0.9174438714981079 L 12.07866191864014 9.5 Z" stroke="none"/>
        <path d="M 6.5 1.834897994995117 L 1.842683792114258 9 L 11.15731620788574 9 L 6.5 1.834897994995117 M 6.5 0 L 13 10 L 0 10 L 6.5 0 Z" stroke="none" fill="#707070"/>
      </g>
      <g id="Polygon_2-2" data-name="Polygon 2" transform="matrix(-0.719, 0.695, -0.695, -0.719, 1155.628, 300.767)" fill="#fff">
        <path d="M 12.19396781921387 9.496299743652344 L 0.9261753559112549 9.496299743652344 L 6.560071468353271 0.9113129377365112 L 12.19396781921387 9.496299743652344 Z" stroke="none"/>
        <path d="M 6.560071468353271 1.822641372680664 L 1.852359771728516 8.996299743652344 L 11.26778411865234 8.996299743652344 L 6.560071468353271 1.822641372680664 M 6.560071468353271 0 L 13.12014102935791 9.996299743652344 L 1.9073486328125e-06 9.996299743652344 L 6.560071468353271 0 Z" stroke="none" fill="#707070"/>
      </g>
      <g id="Polygon_3-2" data-name="Polygon 3" transform="matrix(-0.616, -0.788, 0.788, -0.616, 1088.809, 306.851)" fill="#fff">
        <path d="M 12.19396781921387 9.496299743652344 L 0.9261753559112549 9.496299743652344 L 6.560071468353271 0.9113129377365112 L 12.19396781921387 9.496299743652344 Z" stroke="none"/>
        <path d="M 6.560071468353271 1.822641372680664 L 1.852359771728516 8.996299743652344 L 11.26778411865234 8.996299743652344 L 6.560071468353271 1.822641372680664 M 6.560071468353271 0 L 13.12014102935791 9.996299743652344 L 1.9073486328125e-06 9.996299743652344 L 6.560071468353271 0 Z" stroke="none" fill="#707070"/>
      </g>
    </g>
    <g id="Gruppe_4" data-name="Gruppe 4" transform="translate(145 -402)">
      <g id="Ellipse_2" data-name="Ellipse 2" transform="matrix(0.788, -0.616, 0.616, 0.788, 697.281, 745.919)" fill="#fff" stroke="#707070" stroke-width="1">
        <ellipse cx="48.324" cy="17.572" rx="48.324" ry="17.572" stroke="none"/>
        <ellipse cx="48.324" cy="17.572" rx="47.824" ry="17.072" fill="none"/>
      </g>
      <path id="Pfad_6" data-name="Pfad 6" d="M848.687,780.764s11.426,9.412-22.642,43.3c-39.3,29.859-47.329,18.432-47.329,18.432l-68.347-81.1s5.8,17.049,53.313-17.621c34.7-34.1,22.462-40.714,22.462-40.714Z" transform="translate(-2.634 -3.351)" fill="none" stroke="#707070" stroke-width="1"/>
    </g>
    <g id="Gruppe_5" data-name="Gruppe 5" transform="translate(-45.002 82)">
      <path id="Pfad_4-3" data-name="Pfad 4" d="M1142.09,258.617v29.307l27.518,19.171" transform="translate(-23.024 -5.86)" fill="none" stroke="#707070" stroke-width="1"/>
      <path id="Pfad_5-3" data-name="Pfad 5" d="M1125.434,305.233,1097.7,320.52" transform="translate(-6.368 -23.352)" fill="none" stroke="#707070" stroke-width="1"/>
      <g id="Polygon_1-3" data-name="Polygon 1" transform="translate(1113 243)" fill="#fff">
        <path d="M 12.07866191864014 9.5 L 0.9213384985923767 9.5 L 6.5 0.9174438714981079 L 12.07866191864014 9.5 Z" stroke="none"/>
        <path d="M 6.5 1.834897994995117 L 1.842683792114258 9 L 11.15731620788574 9 L 6.5 1.834897994995117 M 6.5 0 L 13 10 L 0 10 L 6.5 0 Z" stroke="none" fill="#707070"/>
      </g>
      <g id="Polygon_2-3" data-name="Polygon 2" transform="matrix(-0.719, 0.695, -0.695, -0.719, 1155.628, 300.767)" fill="#fff">
        <path d="M 12.19396781921387 9.496299743652344 L 0.9261753559112549 9.496299743652344 L 6.560071468353271 0.9113129377365112 L 12.19396781921387 9.496299743652344 Z" stroke="none"/>
        <path d="M 6.560071468353271 1.822641372680664 L 1.852359771728516 8.996299743652344 L 11.26778411865234 8.996299743652344 L 6.560071468353271 1.822641372680664 M 6.560071468353271 0 L 13.12014102935791 9.996299743652344 L 1.9073486328125e-06 9.996299743652344 L 6.560071468353271 0 Z" stroke="none" fill="#707070"/>
      </g>
      <g id="Polygon_3-3" data-name="Polygon 3" transform="matrix(-0.616, -0.788, 0.788, -0.616, 1088.809, 306.851)" fill="#fff">
        <path d="M 12.19396781921387 9.496299743652344 L 0.9261753559112549 9.496299743652344 L 6.560071468353271 0.9113129377365112 L 12.19396781921387 9.496299743652344 Z" stroke="none"/>
        <path d="M 6.560071468353271 1.822641372680664 L 1.852359771728516 8.996299743652344 L 11.26778411865234 8.996299743652344 L 6.560071468353271 1.822641372680664 M 6.560071468353271 0 L 13.12014102935791 9.996299743652344 L 1.9073486328125e-06 9.996299743652344 L 6.560071468353271 0 Z" stroke="none" fill="#707070"/>
      </g>
    </g>
    <g id="Gruppe_6" data-name="Gruppe 6" transform="translate(8.126 -353.207)">
      <g id="Rechteck_1" data-name="Rechteck 1" transform="translate(1119.874 672.207)" fill="#fff" stroke="#707070" stroke-width="1">
        <rect width="10" height="76" stroke="none"/>
        <rect x="0.5" y="0.5" width="9" height="75" fill="none"/>
      </g>
      <g id="Wiederholungsraster_1" data-name="Wiederholungsraster 1" transform="translate(1125.823 672)" clip-path="url(#clip-path)">
        <g transform="translate(-1134.5 -682)">
          <line id="Linie_3" data-name="Linie 3" x2="9" transform="translate(1134.5 682.5)" fill="none" stroke="#707070" stroke-width="1"/>
        </g>
        <g transform="translate(-1134.5 -676)">
          <line id="Linie_3-2" data-name="Linie 3" x2="9" transform="translate(1134.5 682.5)" fill="none" stroke="#707070" stroke-width="1"/>
        </g>
        <g transform="translate(-1134.5 -670)">
          <line id="Linie_3-3" data-name="Linie 3" x2="9" transform="translate(1134.5 682.5)" fill="none" stroke="#707070" stroke-width="1"/>
        </g>
        <g transform="translate(-1134.5 -664)">
          <line id="Linie_3-4" data-name="Linie 3" x2="9" transform="translate(1134.5 682.5)" fill="none" stroke="#707070" stroke-width="1"/>
        </g>
        <g transform="translate(-1134.5 -658)">
          <line id="Linie_3-5" data-name="Linie 3" x2="9" transform="translate(1134.5 682.5)" fill="none" stroke="#707070" stroke-width="1"/>
        </g>
        <g transform="translate(-1134.5 -652)">
          <line id="Linie_3-6" data-name="Linie 3" x2="9" transform="translate(1134.5 682.5)" fill="none" stroke="#707070" stroke-width="1"/>
        </g>
        <g transform="translate(-1134.5 -646)">
          <line id="Linie_3-7" data-name="Linie 3" x2="9" transform="translate(1134.5 682.5)" fill="none" stroke="#707070" stroke-width="1"/>
        </g>
        <g transform="translate(-1134.5 -640)">
          <line id="Linie_3-8" data-name="Linie 3" x2="9" transform="translate(1134.5 682.5)" fill="none" stroke="#707070" stroke-width="1"/>
        </g>
        <g transform="translate(-1134.5 -634)">
          <line id="Linie_3-9" data-name="Linie 3" x2="9" transform="translate(1134.5 682.5)" fill="none" stroke="#707070" stroke-width="1"/>
        </g>
        <g transform="translate(-1134.5 -628)">
          <line id="Linie_3-10" data-name="Linie 3" x2="9" transform="translate(1134.5 682.5)" fill="none" stroke="#707070" stroke-width="1"/>
        </g>
        <g transform="translate(-1134.5 -622)">
          <line id="Linie_3-11" data-name="Linie 3" x2="9" transform="translate(1134.5 682.5)" fill="none" stroke="#707070" stroke-width="1"/>
        </g>
        <g transform="translate(-1134.5 -616)">
          <line id="Linie_3-12" data-name="Linie 3" x2="9" transform="translate(1134.5 682.5)" fill="none" stroke="#707070" stroke-width="1"/>
        </g>
        <g transform="translate(-1134.5 -610)">
          <line id="Linie_3-13" data-name="Linie 3" x2="9" transform="translate(1134.5 682.5)" fill="none" stroke="#707070" stroke-width="1"/>
        </g>
      </g>
    </g>
    <g id="Ellipse_3" data-name="Ellipse 3" transform="translate(1214 342)" fill="#fff" stroke="#707070" stroke-width="1">
      <ellipse cx="100.5" cy="12.5" rx="100.5" ry="12.5" stroke="none"/>
      <ellipse cx="100.5" cy="12.5" rx="100" ry="12" fill="none"/>
    </g>
    <g id="Gruppe_7" data-name="Gruppe 7" transform="translate(373.998 79)">
      <path id="Pfad_4-4" data-name="Pfad 4" d="M1142.09,258.617v29.307l27.518,19.171" transform="translate(-23.024 -5.86)" fill="none" stroke="#707070" stroke-width="1"/>
      <path id="Pfad_5-4" data-name="Pfad 5" d="M1125.434,305.233,1097.7,320.52" transform="translate(-6.368 -23.352)" fill="none" stroke="#707070" stroke-width="1"/>
      <g id="Polygon_1-4" data-name="Polygon 1" transform="translate(1113 243)" fill="#fff">
        <path d="M 12.07866191864014 9.5 L 0.9213384985923767 9.5 L 6.5 0.9174438714981079 L 12.07866191864014 9.5 Z" stroke="none"/>
        <path d="M 6.5 1.834897994995117 L 1.842683792114258 9 L 11.15731620788574 9 L 6.5 1.834897994995117 M 6.5 0 L 13 10 L 0 10 L 6.5 0 Z" stroke="none" fill="#707070"/>
      </g>
      <g id="Polygon_2-4" data-name="Polygon 2" transform="matrix(-0.719, 0.695, -0.695, -0.719, 1155.628, 300.767)" fill="#fff">
        <path d="M 12.19396781921387 9.496299743652344 L 0.9261753559112549 9.496299743652344 L 6.560071468353271 0.9113129377365112 L 12.19396781921387 9.496299743652344 Z" stroke="none"/>
        <path d="M 6.560071468353271 1.822641372680664 L 1.852359771728516 8.996299743652344 L 11.26778411865234 8.996299743652344 L 6.560071468353271 1.822641372680664 M 6.560071468353271 0 L 13.12014102935791 9.996299743652344 L 1.9073486328125e-06 9.996299743652344 L 6.560071468353271 0 Z" stroke="none" fill="#707070"/>
      </g>
      <g id="Polygon_3-4" data-name="Polygon 3" transform="matrix(-0.616, -0.788, 0.788, -0.616, 1088.809, 306.851)" fill="#fff">
        <path d="M 12.19396781921387 9.496299743652344 L 0.9261753559112549 9.496299743652344 L 6.560071468353271 0.9113129377365112 L 12.19396781921387 9.496299743652344 Z" stroke="none"/>
        <path d="M 6.560071468353271 1.822641372680664 L 1.852359771728516 8.996299743652344 L 11.26778411865234 8.996299743652344 L 6.560071468353271 1.822641372680664 M 6.560071468353271 0 L 13.12014102935791 9.996299743652344 L 1.9073486328125e-06 9.996299743652344 L 6.560071468353271 0 Z" stroke="none" fill="#707070"/>
      </g>
    </g>
    <g id="Gruppe_8" data-name="Gruppe 8" transform="translate(424.126 -356.207)">
      <g id="Rechteck_1-2" data-name="Rechteck 1" transform="translate(1119.874 672.207)" fill="#fff" stroke="#707070" stroke-width="1">
        <rect width="10" height="76" stroke="none"/>
        <rect x="0.5" y="0.5" width="9" height="75" fill="none"/>
      </g>
      <g id="Wiederholungsraster_1-2" data-name="Wiederholungsraster 1" transform="translate(1125.823 672)" clip-path="url(#clip-path)">
        <g transform="translate(-1134.5 -682)">
          <line id="Linie_3-14" data-name="Linie 3" x2="9" transform="translate(1134.5 682.5)" fill="none" stroke="#707070" stroke-width="1"/>
        </g>
        <g transform="translate(-1134.5 -676)">
          <line id="Linie_3-15" data-name="Linie 3" x2="9" transform="translate(1134.5 682.5)" fill="none" stroke="#707070" stroke-width="1"/>
        </g>
        <g transform="translate(-1134.5 -670)">
          <line id="Linie_3-16" data-name="Linie 3" x2="9" transform="translate(1134.5 682.5)" fill="none" stroke="#707070" stroke-width="1"/>
        </g>
        <g transform="translate(-1134.5 -664)">
          <line id="Linie_3-17" data-name="Linie 3" x2="9" transform="translate(1134.5 682.5)" fill="none" stroke="#707070" stroke-width="1"/>
        </g>
        <g transform="translate(-1134.5 -658)">
          <line id="Linie_3-18" data-name="Linie 3" x2="9" transform="translate(1134.5 682.5)" fill="none" stroke="#707070" stroke-width="1"/>
        </g>
        <g transform="translate(-1134.5 -652)">
          <line id="Linie_3-19" data-name="Linie 3" x2="9" transform="translate(1134.5 682.5)" fill="none" stroke="#707070" stroke-width="1"/>
        </g>
        <g transform="translate(-1134.5 -646)">
          <line id="Linie_3-20" data-name="Linie 3" x2="9" transform="translate(1134.5 682.5)" fill="none" stroke="#707070" stroke-width="1"/>
        </g>
        <g transform="translate(-1134.5 -640)">
          <line id="Linie_3-21" data-name="Linie 3" x2="9" transform="translate(1134.5 682.5)" fill="none" stroke="#707070" stroke-width="1"/>
        </g>
        <g transform="translate(-1134.5 -634)">
          <line id="Linie_3-22" data-name="Linie 3" x2="9" transform="translate(1134.5 682.5)" fill="none" stroke="#707070" stroke-width="1"/>
        </g>
        <g transform="translate(-1134.5 -628)">
          <line id="Linie_3-23" data-name="Linie 3" x2="9" transform="translate(1134.5 682.5)" fill="none" stroke="#707070" stroke-width="1"/>
        </g>
        <g transform="translate(-1134.5 -622)">
          <line id="Linie_3-24" data-name="Linie 3" x2="9" transform="translate(1134.5 682.5)" fill="none" stroke="#707070" stroke-width="1"/>
        </g>
        <g transform="translate(-1134.5 -616)">
          <line id="Linie_3-25" data-name="Linie 3" x2="9" transform="translate(1134.5 682.5)" fill="none" stroke="#707070" stroke-width="1"/>
        </g>
        <g transform="translate(-1134.5 -610)">
          <line id="Linie_3-26" data-name="Linie 3" x2="9" transform="translate(1134.5 682.5)" fill="none" stroke="#707070" stroke-width="1"/>
        </g>
      </g>
    </g>
    <text id="Chair" transform="translate(955 223)" font-size="34" font-family="SegoeUI, Segoe UI"><tspan x="0" y="0">Chair</tspan></text>
    <text id="Ball" transform="translate(1397 236)" font-size="34" font-family="SegoeUI, Segoe UI"><tspan x="0" y="0">Ball</tspan></text>
    <text id="Circle" transform="translate(1397 481)" font-size="34" font-family="SegoeUI, Segoe UI"><tspan x="0" y="0">Circle</tspan></text>
    <text id="Balance" transform="translate(955 700)" font-size="34" font-family="SegoeUI, Segoe UI"><tspan x="0" y="0">Balance</tspan></text>
    <text id="Guitare_Hero" data-name="Guitare Hero" transform="translate(1397 654)" font-size="34" font-family="SegoeUI, Segoe UI"><tspan x="0" y="0">Guitare Hero</tspan></text>
    <g id="Gruppe_9" data-name="Gruppe 9" transform="translate(373.998 293)">
      <path id="Pfad_4-5" data-name="Pfad 4" d="M1142.09,258.617v29.307l27.518,19.171" transform="translate(-23.024 -5.86)" fill="none" stroke="#707070" stroke-width="1"/>
      <path id="Pfad_5-5" data-name="Pfad 5" d="M1125.434,305.233,1097.7,320.52" transform="translate(-6.368 -23.352)" fill="none" stroke="#707070" stroke-width="1"/>
      <g id="Polygon_1-5" data-name="Polygon 1" transform="translate(1113 243)" fill="#fff">
        <path d="M 12.07866191864014 9.5 L 0.9213384985923767 9.5 L 6.5 0.9174438714981079 L 12.07866191864014 9.5 Z" stroke="none"/>
        <path d="M 6.5 1.834897994995117 L 1.842683792114258 9 L 11.15731620788574 9 L 6.5 1.834897994995117 M 6.5 0 L 13 10 L 0 10 L 6.5 0 Z" stroke="none" fill="#707070"/>
      </g>
      <g id="Polygon_2-5" data-name="Polygon 2" transform="matrix(-0.719, 0.695, -0.695, -0.719, 1155.628, 300.767)" fill="#fff">
        <path d="M 12.19396781921387 9.496299743652344 L 0.9261753559112549 9.496299743652344 L 6.560071468353271 0.9113129377365112 L 12.19396781921387 9.496299743652344 Z" stroke="none"/>
        <path d="M 6.560071468353271 1.822641372680664 L 1.852359771728516 8.996299743652344 L 11.26778411865234 8.996299743652344 L 6.560071468353271 1.822641372680664 M 6.560071468353271 0 L 13.12014102935791 9.996299743652344 L 1.9073486328125e-06 9.996299743652344 L 6.560071468353271 0 Z" stroke="none" fill="#707070"/>
      </g>
      <g id="Polygon_3-5" data-name="Polygon 3" transform="matrix(-0.616, -0.788, 0.788, -0.616, 1088.809, 306.851)" fill="#fff">
        <path d="M 12.19396781921387 9.496299743652344 L 0.9261753559112549 9.496299743652344 L 6.560071468353271 0.9113129377365112 L 12.19396781921387 9.496299743652344 Z" stroke="none"/>
        <path d="M 6.560071468353271 1.822641372680664 L 1.852359771728516 8.996299743652344 L 11.26778411865234 8.996299743652344 L 6.560071468353271 1.822641372680664 M 6.560071468353271 0 L 13.12014102935791 9.996299743652344 L 1.9073486328125e-06 9.996299743652344 L 6.560071468353271 0 Z" stroke="none" fill="#707070"/>
      </g>
    </g>
    <g id="Gruppe_10" data-name="Gruppe 10" transform="translate(424.126 -142.207)">
      <g id="Rechteck_1-3" data-name="Rechteck 1" transform="translate(1119.874 672.207)" fill="#fff" stroke="#707070" stroke-width="1">
        <rect width="10" height="76" stroke="none"/>
        <rect x="0.5" y="0.5" width="9" height="75" fill="none"/>
      </g>
      <g id="Wiederholungsraster_1-3" data-name="Wiederholungsraster 1" transform="translate(1125.823 672)" clip-path="url(#clip-path)">
        <g transform="translate(-1134.5 -682)">
          <line id="Linie_3-27" data-name="Linie 3" x2="9" transform="translate(1134.5 682.5)" fill="none" stroke="#707070" stroke-width="1"/>
        </g>
        <g transform="translate(-1134.5 -676)">
          <line id="Linie_3-28" data-name="Linie 3" x2="9" transform="translate(1134.5 682.5)" fill="none" stroke="#707070" stroke-width="1"/>
        </g>
        <g transform="translate(-1134.5 -670)">
          <line id="Linie_3-29" data-name="Linie 3" x2="9" transform="translate(1134.5 682.5)" fill="none" stroke="#707070" stroke-width="1"/>
        </g>
        <g transform="translate(-1134.5 -664)">
          <line id="Linie_3-30" data-name="Linie 3" x2="9" transform="translate(1134.5 682.5)" fill="none" stroke="#707070" stroke-width="1"/>
        </g>
        <g transform="translate(-1134.5 -658)">
          <line id="Linie_3-31" data-name="Linie 3" x2="9" transform="translate(1134.5 682.5)" fill="none" stroke="#707070" stroke-width="1"/>
        </g>
        <g transform="translate(-1134.5 -652)">
          <line id="Linie_3-32" data-name="Linie 3" x2="9" transform="translate(1134.5 682.5)" fill="none" stroke="#707070" stroke-width="1"/>
        </g>
        <g transform="translate(-1134.5 -646)">
          <line id="Linie_3-33" data-name="Linie 3" x2="9" transform="translate(1134.5 682.5)" fill="none" stroke="#707070" stroke-width="1"/>
        </g>
        <g transform="translate(-1134.5 -640)">
          <line id="Linie_3-34" data-name="Linie 3" x2="9" transform="translate(1134.5 682.5)" fill="none" stroke="#707070" stroke-width="1"/>
        </g>
        <g transform="translate(-1134.5 -634)">
          <line id="Linie_3-35" data-name="Linie 3" x2="9" transform="translate(1134.5 682.5)" fill="none" stroke="#707070" stroke-width="1"/>
        </g>
        <g transform="translate(-1134.5 -628)">
          <line id="Linie_3-36" data-name="Linie 3" x2="9" transform="translate(1134.5 682.5)" fill="none" stroke="#707070" stroke-width="1"/>
        </g>
        <g transform="translate(-1134.5 -622)">
          <line id="Linie_3-37" data-name="Linie 3" x2="9" transform="translate(1134.5 682.5)" fill="none" stroke="#707070" stroke-width="1"/>
        </g>
        <g transform="translate(-1134.5 -616)">
          <line id="Linie_3-38" data-name="Linie 3" x2="9" transform="translate(1134.5 682.5)" fill="none" stroke="#707070" stroke-width="1"/>
        </g>
        <g transform="translate(-1134.5 -610)">
          <line id="Linie_3-39" data-name="Linie 3" x2="9" transform="translate(1134.5 682.5)" fill="none" stroke="#707070" stroke-width="1"/>
        </g>
      </g>
    </g>
    <g id="Ellipse_4" data-name="Ellipse 4" transform="translate(816 594)" fill="#fff" stroke="#707070" stroke-width="1">
      <ellipse cx="100.5" cy="12.5" rx="100.5" ry="12.5" stroke="none"/>
      <ellipse cx="100.5" cy="12.5" rx="100" ry="12" fill="none"/>
    </g>
    <g id="Gruppe_11" data-name="Gruppe 11" transform="translate(-45.002 331)">
      <path id="Pfad_4-6" data-name="Pfad 4" d="M1142.09,258.617v29.307l27.518,19.171" transform="translate(-23.024 -5.86)" fill="none" stroke="#707070" stroke-width="1"/>
      <path id="Pfad_5-6" data-name="Pfad 5" d="M1125.434,305.233,1097.7,320.52" transform="translate(-6.368 -23.352)" fill="none" stroke="#707070" stroke-width="1"/>
      <g id="Polygon_1-6" data-name="Polygon 1" transform="translate(1113 243)" fill="#fff">
        <path d="M 12.07866191864014 9.5 L 0.9213384985923767 9.5 L 6.5 0.9174438714981079 L 12.07866191864014 9.5 Z" stroke="none"/>
        <path d="M 6.5 1.834897994995117 L 1.842683792114258 9 L 11.15731620788574 9 L 6.5 1.834897994995117 M 6.5 0 L 13 10 L 0 10 L 6.5 0 Z" stroke="none" fill="#707070"/>
      </g>
      <g id="Polygon_2-6" data-name="Polygon 2" transform="matrix(-0.719, 0.695, -0.695, -0.719, 1155.628, 300.767)" fill="#fff">
        <path d="M 12.19396781921387 9.496299743652344 L 0.9261753559112549 9.496299743652344 L 6.560071468353271 0.9113129377365112 L 12.19396781921387 9.496299743652344 Z" stroke="none"/>
        <path d="M 6.560071468353271 1.822641372680664 L 1.852359771728516 8.996299743652344 L 11.26778411865234 8.996299743652344 L 6.560071468353271 1.822641372680664 M 6.560071468353271 0 L 13.12014102935791 9.996299743652344 L 1.9073486328125e-06 9.996299743652344 L 6.560071468353271 0 Z" stroke="none" fill="#707070"/>
      </g>
      <g id="Polygon_3-6" data-name="Polygon 3" transform="matrix(-0.616, -0.788, 0.788, -0.616, 1088.809, 306.851)" fill="#fff">
        <path d="M 12.19396781921387 9.496299743652344 L 0.9261753559112549 9.496299743652344 L 6.560071468353271 0.9113129377365112 L 12.19396781921387 9.496299743652344 Z" stroke="none"/>
        <path d="M 6.560071468353271 1.822641372680664 L 1.852359771728516 8.996299743652344 L 11.26778411865234 8.996299743652344 L 6.560071468353271 1.822641372680664 M 6.560071468353271 0 L 13.12014102935791 9.996299743652344 L 1.9073486328125e-06 9.996299743652344 L 6.560071468353271 0 Z" stroke="none" fill="#707070"/>
      </g>
    </g>
    <g id="Gruppe_12" data-name="Gruppe 12" transform="translate(8.126 -104.207)">
      <g id="Rechteck_1-4" data-name="Rechteck 1" transform="translate(1119.874 672.207)" fill="#fff" stroke="#707070" stroke-width="1">
        <rect width="10" height="76" stroke="none"/>
        <rect x="0.5" y="0.5" width="9" height="75" fill="none"/>
      </g>
      <g id="Wiederholungsraster_1-4" data-name="Wiederholungsraster 1" transform="translate(1125.823 672)" clip-path="url(#clip-path)">
        <g transform="translate(-1134.5 -682)">
          <line id="Linie_3-40" data-name="Linie 3" x2="9" transform="translate(1134.5 682.5)" fill="none" stroke="#707070" stroke-width="1"/>
        </g>
        <g transform="translate(-1134.5 -676)">
          <line id="Linie_3-41" data-name="Linie 3" x2="9" transform="translate(1134.5 682.5)" fill="none" stroke="#707070" stroke-width="1"/>
        </g>
        <g transform="translate(-1134.5 -670)">
          <line id="Linie_3-42" data-name="Linie 3" x2="9" transform="translate(1134.5 682.5)" fill="none" stroke="#707070" stroke-width="1"/>
        </g>
        <g transform="translate(-1134.5 -664)">
          <line id="Linie_3-43" data-name="Linie 3" x2="9" transform="translate(1134.5 682.5)" fill="none" stroke="#707070" stroke-width="1"/>
        </g>
        <g transform="translate(-1134.5 -658)">
          <line id="Linie_3-44" data-name="Linie 3" x2="9" transform="translate(1134.5 682.5)" fill="none" stroke="#707070" stroke-width="1"/>
        </g>
        <g transform="translate(-1134.5 -652)">
          <line id="Linie_3-45" data-name="Linie 3" x2="9" transform="translate(1134.5 682.5)" fill="none" stroke="#707070" stroke-width="1"/>
        </g>
        <g transform="translate(-1134.5 -646)">
          <line id="Linie_3-46" data-name="Linie 3" x2="9" transform="translate(1134.5 682.5)" fill="none" stroke="#707070" stroke-width="1"/>
        </g>
        <g transform="translate(-1134.5 -640)">
          <line id="Linie_3-47" data-name="Linie 3" x2="9" transform="translate(1134.5 682.5)" fill="none" stroke="#707070" stroke-width="1"/>
        </g>
        <g transform="translate(-1134.5 -634)">
          <line id="Linie_3-48" data-name="Linie 3" x2="9" transform="translate(1134.5 682.5)" fill="none" stroke="#707070" stroke-width="1"/>
        </g>
        <g transform="translate(-1134.5 -628)">
          <line id="Linie_3-49" data-name="Linie 3" x2="9" transform="translate(1134.5 682.5)" fill="none" stroke="#707070" stroke-width="1"/>
        </g>
        <g transform="translate(-1134.5 -622)">
          <line id="Linie_3-50" data-name="Linie 3" x2="9" transform="translate(1134.5 682.5)" fill="none" stroke="#707070" stroke-width="1"/>
        </g>
        <g transform="translate(-1134.5 -616)">
          <line id="Linie_3-51" data-name="Linie 3" x2="9" transform="translate(1134.5 682.5)" fill="none" stroke="#707070" stroke-width="1"/>
        </g>
        <g transform="translate(-1134.5 -610)">
          <line id="Linie_3-52" data-name="Linie 3" x2="9" transform="translate(1134.5 682.5)" fill="none" stroke="#707070" stroke-width="1"/>
        </g>
      </g>
    </g>
    <text id="Tube" transform="translate(955 480)" font-size="34" font-family="SegoeUI, Segoe UI"><tspan x="0" y="0">Tube</tspan></text>
    <g id="Ellipse_5" data-name="Ellipse 5" transform="translate(905 592)" fill="#fff" stroke="#707070" stroke-width="1">
      <circle cx="10.5" cy="10.5" r="10.5" stroke="none"/>
      <circle cx="10.5" cy="10.5" r="10" fill="none"/>
    </g>
  </g>
</svg>
