<svg xmlns="http://www.w3.org/2000/svg" xmlns:xlink="http://www.w3.org/1999/xlink" xmlns:lucid="lucid" width="738.67" height="1008.42"><g transform="translate(20 20)" lucid:page-tab-id="0_0"><path d="M255.63 84.2c31.24 0 56.56 13.44 56.56 30 0 16.58-25.33 30-56.57 30H85.96c-31.24 0-56.56-13.42-56.56-30 0-16.56 25.32-30 56.56-30z" stroke="#666" fill="#fff"/><use xlink:href="#a" transform="matrix(1,0,0,1,34.67103116765656,89.47952631578949) translate(57.42592592592591 28.457444444444445)"/><use xlink:href="#b" transform="matrix(1,0,0,1,34.67103116765656,89.47952631578949) translate(83.35185185185183 28.457444444444445)"/><use xlink:href="#c" transform="matrix(1,0,0,1,34.67103116765656,89.47952631578949) translate(121.37654320987653 28.457444444444445)"/><use xlink:href="#d" transform="matrix(1,0,0,1,34.67103116765656,89.47952631578949) translate(138.66049382716048 28.457444444444445)"/><path d="M311.6 38.95c16.56 0 30 13.43 30 30v869.47c0 16.57-13.44 30-30 30H30c-16.57 0-30-13.43-30-30V68.95c0-16.57 13.43-30 30-30z" stroke="#666" fill-opacity="0"/><path d="M170.8 169.6l80.1 42.1-80.1 42.1-80.1-42.1z" stroke="#666" fill="#fff"/><use xlink:href="#e" transform="matrix(1,0,0,1,95.69179163335397,174.5988869956723) translate(38.005 30.80625)"/><use xlink:href="#f" transform="matrix(1,0,0,1,95.69179163335397,174.5988869956723) translate(72.005 30.80625)"/><use xlink:href="#g" transform="matrix(1,0,0,1,95.69179163335397,174.5988869956723) translate(43.529999999999994 52.40625)"/><path d="M170.8 145.2v7.45" stroke="#666" fill="none"/><path d="M171.3 145.22h-1v-.5h1z" fill="#666"/><path d="M170.8 167.4l-4.64-14.25h9.27z" stroke="#666" fill="#666"/><path d="M171.3 300.08h-1v-3.86h1zm0-25.46h-1v-19.75h1z" fill="#666"/><path d="M171.3 254.9h-1v-.8l.5.27.5-.26zM170.8 314.85l-4.64-14.27h9.27z" fill="#666"/><path d="M170.8 316.47l-5.33-16.4h10.65zm-3.95-15.4l3.95 12.16 3.94-12.15z" fill="#666"/><use xlink:href="#h" transform="matrix(1,0,0,1,156.7953375099986,274.62079329357636) translate(0 14.4)"/><path d="M353.2 212.2H252.46v-1h99.72v-7.08h1zm0-29.68h-1v-67.8h-23.13v-1h24.12z" fill="#666"/><path d="M252.5 212.2H251l.95-.5-.95-.5h1.47zM328.57 118.85l-14.26-4.64 14.27-4.62z" fill="#666"/><path d="M329.07 119.53l-16.38-5.32 16.37-5.3zm-13.15-5.32l12.15 3.96v-7.9z" fill="#666"/><use xlink:href="#i" transform="matrix(1,0,0,1,342.68893109579244,182.51504536753973) translate(0 14.4)"/><path d="M668.67 38.95c16.57 0 30 13.43 30 30v869.47c0 16.57-13.43 30-30 30h-281.6c-16.56 0-30-13.43-30-30V68.95c0-16.57 13.44-30 30-30z" stroke="#666" fill-opacity="0"/><path d="M0 0h341.6v60H0z" stroke="#000" stroke-opacity="0" fill="#fff" fill-opacity="0"/><use xlink:href="#j" transform="matrix(1,0,0,1,5,5) translate(128 30.025)"/><path d="M426.56 0H629.2v60H426.56z" stroke="#000" stroke-opacity="0" fill="#fff" fill-opacity="0"/><use xlink:href="#k" transform="matrix(1,0,0,1,431.5558534138455,5) translate(58.55 30.025)"/><path d="M113.83 324.97c0-4.42 3.58-8 8-8h97.93c4.42 0 8 3.58 8 8v45.98c0 4.42-3.58 8-8 8h-97.93c-4.42 0-8-3.58-8-8z" stroke="#999" fill-opacity="0"/><use xlink:href="#a" transform="matrix(1,0,0,1,119.09830506307989,322.2363080483039) translate(20.953703703703702 19.207444444444448)"/><use xlink:href="#l" transform="matrix(1,0,0,1,119.09830506307989,322.2363080483039) translate(46.879629629629626 19.207444444444448)"/><use xlink:href="#m" transform="matrix(1,0,0,1,119.09830506307989,322.2363080483039) translate(41.197530864197525 37.87411111111112)"/><path d="M170.8 379.95v30.5h-.8v14.64" stroke="#666" fill="none"/><path d="M171.3 379.96h-1v-.5h1z" fill="#666"/><path d="M170 439.86l-4.63-14.27h9.27z" stroke="#666" fill="#666"/><path d="M101.07 618.53c0-4.42 3.6-8 8-8h123.45c4.42 0 8 3.58 8 8v71.36c0 4.4-3.58 8-8 8H109.07c-4.4 0-8-3.6-8-8z" stroke="#666" fill-opacity="0"/><use xlink:href="#n" transform="matrix(1,0,0,1,106.34240606359911,615.7953157894738) translate(16.55864197530864 32.80119444444445)"/><use xlink:href="#o" transform="matrix(1,0,0,1,106.34240606359911,615.7953157894738) translate(54.58333333333333 32.80119444444445)"/><use xlink:href="#p" transform="matrix(1,0,0,1,106.34240606359911,615.7953157894738) translate(45.941358024691354 51.46786111111112)"/><path d="M170 442.1l68.95 52.64L170 547.37l-68.93-52.63z" stroke="#666" fill="#fff"/><use xlink:href="#q" transform="matrix(1,0,0,1,106.07340589894586,447.10526315789474) translate(19.061728395061728 34.200944444444445)"/><use xlink:href="#r" transform="matrix(1,0,0,1,106.07340589894586,447.10526315789474) translate(44.98765432098766 34.200944444444445)"/><use xlink:href="#s" transform="matrix(1,0,0,1,106.07340589894586,447.10526315789474) translate(74.37037037037038 34.200944444444445)"/><use xlink:href="#t" transform="matrix(1,0,0,1,106.07340589894586,447.10526315789474) translate(29.432098765432094 52.8676111111111)"/><use xlink:href="#u" transform="matrix(1,0,0,1,106.07340589894586,447.10526315789474) translate(72.64197530864197 52.8676111111111)"/><use xlink:href="#v" transform="matrix(1,0,0,1,106.07340589894586,447.10526315789474) translate(24.29012345679012 71.53427777777777)"/><use xlink:href="#w" transform="matrix(1,0,0,1,106.07340589894586,447.10526315789474) translate(69.14197530864197 71.53427777777777)"/><use xlink:href="#m" transform="matrix(1,0,0,1,106.07340589894586,447.10526315789474) translate(82.10493827160494 71.53427777777777)"/><path d="M101.07 744.84c0-4.42 3.6-8 8-8h123.45c4.42 0 8 3.58 8 8v71.37c0 4.43-3.58 8-8 8H109.07c-4.4 0-8-3.57-8-8z" stroke="#666" fill-opacity="0"/><use xlink:href="#x" transform="matrix(1,0,0,1,106.34240615557628,742.1111052631579) translate(47.64814814814815 23.176194444444448)"/><use xlink:href="#y" transform="matrix(1,0,0,1,106.34240615557628,742.1111052631579) translate(22.651234567901234 41.84286111111112)"/><use xlink:href="#p" transform="matrix(1,0,0,1,106.34240615557628,742.1111052631579) translate(45.941358024691354 60.50952777777779)"/><path d="M101.07 871.16c0-4.42 3.6-8 8-8h123.45c4.42 0 8 3.58 8 8v72.72c0 4.4-3.58 8-8 8H109.07c-4.4 0-8-3.6-8-8z" stroke="#666" fill-opacity="0"/><use xlink:href="#x" transform="matrix(1,0,0,1,106.34240589894587,868.4268947368421) translate(47.64814814814815 33.23869444444445)"/><use xlink:href="#z" transform="matrix(1,0,0,1,106.34240589894587,868.4268947368421) translate(28.26851851851852 51.90536111111112)"/><path d="M171.3 593.64h-1v-3.83h1zm-.8-25.43h-1v-19.7h1zM170.5 548.5h-1v-.88l.5.38.5-.38zM170.8 608.4l-4.64-14.26h9.27z" fill="#666"/><path d="M170.8 610.03l-5.33-16.4h10.65zm-3.95-15.4l3.95 12.16 3.94-12.16z" fill="#666"/><use xlink:href="#A" transform="matrix(1,0,0,1,156.40244385890304,568.2119023395531) translate(0 14.4)"/><path d="M48.22 494.24h51.53v1H47.22V352.86h1zm0-162.98h-1V153.24h1z" fill="#666"/><path d="M100.25 494.74l.65.5h-1.16v-1h1.16zM52.36 152.74H43.1l4.62-14.27z" fill="#666"/><path d="M53.05 153.24H42.4l5.32-16.4zm-9.27-1h7.9L47.7 140.1z" fill="#666"/><use xlink:href="#B" transform="matrix(1,0,0,1,37.724034812142065,331.25802942637137) translate(0 14.4)"/><path d="M170.8 698.9v21.07" stroke="#666" fill="none"/><path d="M171.3 698.9h-1v-.5h1z" fill="#666"/><path d="M170.8 734.72l-4.64-14.26h9.27z" stroke="#666" fill="#666"/><path d="M170.8 825.2V846.3" stroke="#666" fill="none"/><path d="M171.3 825.22h-1v-.5h1z" fill="#666"/><path d="M170.8 861.04l-4.64-14.27h9.27z" stroke="#666" fill="#666"/><path d="M454.2 108.73c0-4.42 3.58-8 8-8h131.36c4.42 0 8 3.58 8 8v47.16c0 4.4-3.58 8-8 8H462.2c-4.42 0-8-3.6-8-8z" stroke="#666" fill-opacity="0"/><use xlink:href="#C" transform="matrix(1,0,0,1,459.46229593039936,106.00082791488185) translate(22.827160493827158 19.269944444444448)"/><use xlink:href="#D" transform="matrix(1,0,0,1,459.46229593039936,106.00082791488185) translate(54.71604938271605 19.269944444444448)"/><use xlink:href="#E" transform="matrix(1,0,0,1,459.46229593039936,106.00082791488185) translate(77.14197530864197 19.269944444444448)"/><use xlink:href="#F" transform="matrix(1,0,0,1,459.46229593039936,106.00082791488185) translate(51.66975308641975 37.93661111111112)"/><path d="M454.2 323.8c0-4.43 3.58-8 8-8h136.18c4.42 0 8 3.57 8 8v33.18c0 4.42-3.58 8-8 8h-136.2c-4.4 0-8-3.58-8-8z" stroke="#666" fill-opacity="0"/><use xlink:href="#G" transform="matrix(1,0,0,1,459.46229593039936,321.0584736842105) translate(26.083333333333343 23.269944444444448)"/><use xlink:href="#H" transform="matrix(1,0,0,1,459.46229593039936,321.0584736842105) translate(73.57098765432099 23.269944444444448)"/><path d="M527.88 164.9v26.48" stroke="#666" fill="none"/><path d="M528.38 164.9h-1v-.5h1z" fill="#666"/><path d="M527.88 206.14l-4.64-14.26h9.27z" stroke="#666" fill="#666"/><path d="M642.56 654.7H241.52v-1h400.04V132.8h-23.1v-1h24.1z" fill="#666"/><path d="M241.53 654.7h-.5v-1h.5zM617.95 136.95l-14.27-4.64 14.27-4.62z" fill="#666"/><path d="M618.45 137.63l-16.4-5.32 16.4-5.3zm-13.15-5.32l12.15 3.96v-7.9z" fill="#666"/><path d="M642.56 781.03H241.52v-1h400.04V132.8h-23.1v-1h24.1z" fill="#666"/><path d="M241.53 781.03h-.5v-1h.5zM617.95 136.95l-14.27-4.64 14.27-4.62z" fill="#666"/><path d="M618.45 137.63l-16.4-5.32 16.4-5.3zm-13.15-5.32l12.15 3.96v-7.9z" fill="#666"/><path d="M642.56 908.02H241.52v-1h400.04v-774.2h-23.1v-1h24.1z" fill="#666"/><path d="M241.53 908.02h-.5v-1h.5zM617.95 136.95l-14.27-4.64 14.27-4.62z" fill="#666"/><path d="M618.45 137.63l-16.4-5.32 16.4-5.3zm-13.15-5.32l12.15 3.96v-7.9z" fill="#666"/><path d="M276.3 54.8c0 7-5.7 12.7-12.7 12.7-7.02 0-12.7-5.7-12.7-12.7 0-7 5.68-12.7 12.7-12.7 7 0 12.7 5.7 12.7 12.7z" stroke="#000" stroke-opacity="0" fill="#666"/><g><use xlink:href="#I" transform="matrix(1,0,0,1,255.89888338669883,47.10526315789474) translate(2 14.4)"/></g><path d="M250.4 54.8h-79.6v12.53" stroke="#666" fill="none"/><path d="M250.9 54.8l.06.5h-.57v-1h.56z" fill="#666"/><path d="M170.8 82.1l-4.64-14.27h9.27z" stroke="#666" fill="#666"/><path d="M454.2 216.26c0-4.42 3.58-8 8-8h131.36c4.42 0 8 3.58 8 8v47.16c0 4.42-3.58 8-8 8H462.2c-4.42 0-8-3.58-8-8z" stroke="#666" fill-opacity="0"/><g><use xlink:href="#a" transform="matrix(1,0,0,1,459.46229593039936,213.5296507995462) translate(18.03086419753086 29.207444444444445)"/><use xlink:href="#J" transform="matrix(1,0,0,1,459.46229593039936,213.5296507995462) translate(43.956790123456784 29.207444444444445)"/><use xlink:href="#F" transform="matrix(1,0,0,1,459.46229593039936,213.5296507995462) translate(85.30864197530865 29.207444444444445)"/></g><path d="M446.44 71.52c0 7-5.68 12.7-12.7 12.7-7 0-12.7-5.7-12.7-12.7 0-7 5.7-12.7 12.7-12.7 7.02 0 12.7 5.7 12.7 12.7z" stroke="#000" stroke-opacity="0" fill="#666"/><g><use xlink:href="#I" transform="matrix(1,0,0,1,426.0526315789474,63.822165635886215) translate(2 14.4)"/></g><path d="M446.94 71.52h80.94v12.33" stroke="#666" fill="none"/><path d="M446.95 72.02h-.57l.06-.5-.06-.5h.57z" fill="#666"/><path d="M527.88 98.6l-4.64-14.25h9.27z" stroke="#666" fill="#666"/><path d="M527.88 272.42v26.5" stroke="#666" fill="none"/><path d="M528.38 272.43h-1v-.5h1z" fill="#666"/><path d="M527.88 313.67l-4.64-14.26h9.27z" stroke="#666" fill="#666"/><defs><path d="M177-190C167-65 218 103 67 71c-23-6-38-20-44-43l32-5c15 47 100 32 89-28v-30C133-14 115 1 83 1 29 1 15-40 15-95c0-56 16-97 71-98 29-1 48 16 59 35 1-10 0-23 2-32h30zM94-22c36 0 50-32 50-73 0-42-14-75-50-75-39 0-46 34-46 75s6 73 46 73" id="K"/><path d="M100-194c63 0 86 42 84 106H49c0 40 14 67 53 68 26 1 43-12 49-29l28 8c-11 28-37 45-77 45C44 4 14-33 15-96c1-61 26-98 85-98zm52 81c6-60-76-77-97-28-3 7-6 17-6 28h103" id="L"/><path d="M59-47c-2 24 18 29 38 22v24C64 9 27 4 27-40v-127H5v-23h24l9-43h21v43h35v23H59v120" id="M"/><g id="a"><use transform="matrix(0.04320987654320988,0,0,0.04320987654320988,0,0)" xlink:href="#K"/><use transform="matrix(0.04320987654320988,0,0,0.04320987654320988,8.641975308641976,0)" xlink:href="#L"/><use transform="matrix(0.04320987654320988,0,0,0.04320987654320988,17.283950617283953,0)" xlink:href="#M"/></g><path d="M135-143c-3-34-86-38-87 0 15 53 115 12 119 90S17 21 10-45l28-5c4 36 97 45 98 0-10-56-113-15-118-90-4-57 82-63 122-42 12 7 21 19 24 35" id="N"/><path d="M141-36C126-15 110 5 73 4 37 3 15-17 15-53c-1-64 63-63 125-63 3-35-9-54-41-54-24 1-41 7-42 31l-33-3c5-37 33-52 76-52 45 0 72 20 72 64v82c-1 20 7 32 28 27v20c-31 9-61-2-59-35zM48-53c0 20 12 33 32 33 41-3 63-29 60-74-43 2-92-5-92 41" id="O"/><g id="b"><use transform="matrix(0.04320987654320988,0,0,0.04320987654320988,0,0)" xlink:href="#N"/><use transform="matrix(0.04320987654320988,0,0,0.04320987654320988,7.777777777777779,0)" xlink:href="#M"/><use transform="matrix(0.04320987654320988,0,0,0.04320987654320988,12.098765432098766,0)" xlink:href="#O"/><use transform="matrix(0.04320987654320988,0,0,0.04320987654320988,20.74074074074074,0)" xlink:href="#M"/><use transform="matrix(0.04320987654320988,0,0,0.04320987654320988,25.061728395061728,0)" xlink:href="#L"/></g><path d="M100-194c62-1 85 37 85 99 1 63-27 99-86 99S16-35 15-95c0-66 28-99 85-99zM99-20c44 1 53-31 53-75 0-43-8-75-51-75s-53 32-53 75 10 74 51 75" id="P"/><path d="M101-234c-31-9-42 10-38 44h38v23H63V0H32v-167H5v-23h27c-7-52 17-82 69-68v24" id="Q"/><g id="c"><use transform="matrix(0.04320987654320988,0,0,0.04320987654320988,0,0)" xlink:href="#P"/><use transform="matrix(0.04320987654320988,0,0,0.04320987654320988,8.641975308641976,0)" xlink:href="#Q"/></g><path d="M115-194c55 1 70 41 70 98S169 2 115 4C84 4 66-9 55-30l1 105H24l-1-265h31l2 30c10-21 28-34 59-34zm-8 174c40 0 45-34 45-75s-6-73-45-74c-42 0-51 32-51 76 0 43 10 73 51 73" id="R"/><path d="M84 4C-5 8 30-112 23-190h32v120c0 31 7 50 39 49 72-2 45-101 50-169h31l1 190h-30c-1-10 1-25-2-33-11 22-28 36-60 37" id="S"/><path d="M106-169C34-169 62-67 57 0H25v-261h32l-1 103c12-21 28-36 61-36 89 0 53 116 60 194h-32v-121c2-32-8-49-39-48" id="T"/><path d="M115-194c53 0 69 39 70 98 0 66-23 100-70 100C84 3 66-7 56-30L54 0H23l1-261h32v101c10-23 28-34 59-34zm-8 174c40 0 45-34 45-75 0-40-5-75-45-74-42 0-51 32-51 76 0 43 10 73 51 73" id="U"/><path d="M117-194c89-4 53 116 60 194h-32v-121c0-31-8-49-39-48C34-167 62-67 57 0H25l-1-190h30c1 10-1 24 2 32 11-22 29-35 61-36" id="V"/><g id="d"><use transform="matrix(0.04320987654320988,0,0,0.04320987654320988,0,0)" xlink:href="#R"/><use transform="matrix(0.04320987654320988,0,0,0.04320987654320988,8.641975308641976,0)" xlink:href="#S"/><use transform="matrix(0.04320987654320988,0,0,0.04320987654320988,17.283950617283953,0)" xlink:href="#N"/><use transform="matrix(0.04320987654320988,0,0,0.04320987654320988,25.06172839506173,0)" xlink:href="#T"/><use transform="matrix(0.04320987654320988,0,0,0.04320987654320988,33.70370370370371,0)" xlink:href="#U"/><use transform="matrix(0.04320987654320988,0,0,0.04320987654320988,42.345679012345684,0)" xlink:href="#S"/><use transform="matrix(0.04320987654320988,0,0,0.04320987654320988,50.98765432098766,0)" xlink:href="#M"/><use transform="matrix(0.04320987654320988,0,0,0.04320987654320988,55.308641975308646,0)" xlink:href="#M"/><use transform="matrix(0.04320987654320988,0,0,0.04320987654320988,59.62962962962963,0)" xlink:href="#P"/><use transform="matrix(0.04320987654320988,0,0,0.04320987654320988,68.27160493827161,0)" xlink:href="#V"/></g><g id="e"><use transform="matrix(0.05,0,0,0.05,0,0)" xlink:href="#T"/><use transform="matrix(0.05,0,0,0.05,10,0)" xlink:href="#O"/><use transform="matrix(0.05,0,0,0.05,20,0)" xlink:href="#N"/></g><g id="f"><use transform="matrix(0.05,0,0,0.05,0,0)" xlink:href="#U"/><use transform="matrix(0.05,0,0,0.05,10,0)" xlink:href="#L"/><use transform="matrix(0.05,0,0,0.05,20,0)" xlink:href="#L"/><use transform="matrix(0.05,0,0,0.05,30,0)" xlink:href="#V"/></g><path d="M114-163C36-179 61-72 57 0H25l-1-190h30c1 12-1 29 2 39 6-27 23-49 58-41v29" id="W"/><path d="M85-194c31 0 48 13 60 33l-1-100h32l1 261h-30c-2-10 0-23-3-31C134-8 116 4 85 4 32 4 16-35 15-94c0-66 23-100 70-100zm9 24c-40 0-46 34-46 75 0 40 6 74 45 74 42 0 51-32 51-76 0-42-9-74-50-73" id="X"/><g id="g"><use transform="matrix(0.05,0,0,0.05,0,0)" xlink:href="#R"/><use transform="matrix(0.05,0,0,0.05,10,0)" xlink:href="#W"/><use transform="matrix(0.05,0,0,0.05,15.949999999999998,0)" xlink:href="#L"/><use transform="matrix(0.05,0,0,0.05,25.950000000000003,0)" xlink:href="#N"/><use transform="matrix(0.05,0,0,0.05,34.95,0)" xlink:href="#N"/><use transform="matrix(0.05,0,0,0.05,43.95,0)" xlink:href="#L"/><use transform="matrix(0.05,0,0,0.05,53.95,0)" xlink:href="#X"/></g><path d="M179-190L93 31C79 59 56 82 12 73V49c39 6 53-20 64-50L1-190h34L92-34l54-156h33" id="Y"/><g id="h"><use transform="matrix(0.05,0,0,0.05,0,0)" xlink:href="#Y"/><use transform="matrix(0.05,0,0,0.05,9,0)" xlink:href="#L"/><use transform="matrix(0.05,0,0,0.05,19,0)" xlink:href="#N"/></g><g id="i"><use transform="matrix(0.05,0,0,0.05,0,0)" xlink:href="#V"/><use transform="matrix(0.05,0,0,0.05,10,0)" xlink:href="#P"/></g><path d="M30 0v-248h187v28H63v79h144v27H63v87h162V0H30" id="Z"/><path d="M185-189c-5-48-123-54-124 2 14 75 158 14 163 119 3 78-121 87-175 55-17-10-28-26-33-46l33-7c5 56 141 63 141-1 0-78-155-14-162-118-5-82 145-84 179-34 5 7 8 16 11 25" id="aa"/><path d="M30-248c87 1 191-15 191 75 0 78-77 80-158 76V0H30v-248zm33 125c57 0 124 11 124-50 0-59-68-47-124-48v98" id="ab"/><path d="M134-131c28 9 52 24 51 62-1 50-34 73-85 73S17-19 16-69c0-36 21-54 49-61-75-25-45-126 34-121 46 3 78 18 79 63 0 33-17 51-44 57zm-34-11c31 1 46-15 46-44 0-28-17-43-47-42-29 0-46 13-45 42 1 28 16 44 46 44zm1 122c35 0 51-18 51-52 0-30-18-46-53-46-33 0-51 17-51 47 0 34 19 51 53 51" id="ac"/><path d="M101-251c82-7 93 87 43 132L82-64C71-53 59-42 53-27h129V0H18c2-99 128-94 128-182 0-28-16-43-45-43s-46 15-49 41l-32-3c6-41 34-60 81-64" id="ad"/><path d="M110-160c48 1 74 30 74 79 0 53-28 85-80 85-65 0-83-55-86-122-5-90 50-162 133-122 14 7 22 21 27 39l-31 6c-5-40-67-38-82-6-9 19-15 44-15 74 11-20 30-34 60-33zm-7 138c34 0 49-23 49-58s-16-56-50-56c-29 0-50 16-49 49 1 36 15 65 50 65" id="ae"/><g id="j"><use transform="matrix(0.05,0,0,0.05,0,0)" xlink:href="#Z"/><use transform="matrix(0.05,0,0,0.05,12,0)" xlink:href="#aa"/><use transform="matrix(0.05,0,0,0.05,24,0)" xlink:href="#ab"/><use transform="matrix(0.05,0,0,0.05,36,0)" xlink:href="#ac"/><use transform="matrix(0.05,0,0,0.05,46,0)" xlink:href="#ad"/><use transform="matrix(0.05,0,0,0.05,56,0)" xlink:href="#ae"/><use transform="matrix(0.05,0,0,0.05,66,0)" xlink:href="#ae"/></g><path d="M30-248c118-7 216 8 213 122C240-48 200 0 122 0H30v-248zM63-27c89 8 146-16 146-99s-60-101-146-95v194" id="af"/><g id="k"><use transform="matrix(0.05,0,0,0.05,0,0)" xlink:href="#ab"/><use transform="matrix(0.05,0,0,0.05,12,0)" xlink:href="#S"/><use transform="matrix(0.05,0,0,0.05,22,0)" xlink:href="#W"/><use transform="matrix(0.05,0,0,0.05,27.950000000000003,0)" xlink:href="#L"/><use transform="matrix(0.05,0,0,0.05,37.95,0)" xlink:href="#af"/><use transform="matrix(0.05,0,0,0.05,50.900000000000006,0)" xlink:href="#O"/><use transform="matrix(0.05,0,0,0.05,60.900000000000006,0)" xlink:href="#M"/><use transform="matrix(0.05,0,0,0.05,65.9,0)" xlink:href="#O"/></g><path d="M233-177c-1 41-23 64-60 70L243 0h-38l-65-103H63V0H30v-248c88 3 205-21 203 71zM63-129c60-2 137 13 137-47 0-61-80-42-137-45v92" id="ag"/><path d="M63-220v92h138v28H63V0H30v-248h175v28H63" id="ah"/><path d="M33 0v-248h34V0H33" id="ai"/><g id="l"><use transform="matrix(0.04320987654320988,0,0,0.04320987654320988,0,0)" xlink:href="#ag"/><use transform="matrix(0.04320987654320988,0,0,0.04320987654320988,11.19135802469136,0)" xlink:href="#ah"/><use transform="matrix(0.04320987654320988,0,0,0.04320987654320988,20.654320987654323,0)" xlink:href="#ai"/><use transform="matrix(0.04320987654320988,0,0,0.04320987654320988,24.97530864197531,0)" xlink:href="#af"/></g><g id="m"><use transform="matrix(0.04320987654320988,0,0,0.04320987654320988,0,0)" xlink:href="#M"/><use transform="matrix(0.04320987654320988,0,0,0.04320987654320988,4.320987654320988,0)" xlink:href="#O"/><use transform="matrix(0.04320987654320988,0,0,0.04320987654320988,12.962962962962964,0)" xlink:href="#K"/></g><g id="n"><use transform="matrix(0.04320987654320988,0,0,0.04320987654320988,0,0)" xlink:href="#N"/><use transform="matrix(0.04320987654320988,0,0,0.04320987654320988,7.777777777777779,0)" xlink:href="#L"/><use transform="matrix(0.04320987654320988,0,0,0.04320987654320988,16.419753086419753,0)" xlink:href="#V"/><use transform="matrix(0.04320987654320988,0,0,0.04320987654320988,25.061728395061728,0)" xlink:href="#X"/></g><path d="M24-231v-30h32v30H24zM24 0v-190h32V0H24" id="aj"/><path d="M96-169c-40 0-48 33-48 73s9 75 48 75c24 0 41-14 43-38l32 2c-6 37-31 61-74 61-59 0-76-41-82-99-10-93 101-131 147-64 4 7 5 14 7 22l-32 3c-4-21-16-35-41-35" id="ak"/><g id="o"><use transform="matrix(0.04320987654320988,0,0,0.04320987654320988,0,0)" xlink:href="#X"/><use transform="matrix(0.04320987654320988,0,0,0.04320987654320988,8.641975308641976,0)" xlink:href="#aj"/><use transform="matrix(0.04320987654320988,0,0,0.04320987654320988,12.055555555555557,0)" xlink:href="#N"/><use transform="matrix(0.04320987654320988,0,0,0.04320987654320988,19.833333333333336,0)" xlink:href="#M"/><use transform="matrix(0.04320987654320988,0,0,0.04320987654320988,24.154320987654323,0)" xlink:href="#O"/><use transform="matrix(0.04320987654320988,0,0,0.04320987654320988,32.7962962962963,0)" xlink:href="#V"/><use transform="matrix(0.04320987654320988,0,0,0.04320987654320988,41.43827160493827,0)" xlink:href="#ak"/><use transform="matrix(0.04320987654320988,0,0,0.04320987654320988,49.21604938271606,0)" xlink:href="#L"/></g><path d="M108 0H70L1-190h34L89-25l56-165h34" id="al"/><path d="M24 0v-261h32V0H24" id="am"/><g id="p"><use transform="matrix(0.04320987654320988,0,0,0.04320987654320988,0,0)" xlink:href="#al"/><use transform="matrix(0.04320987654320988,0,0,0.04320987654320988,7.777777777777779,0)" xlink:href="#O"/><use transform="matrix(0.04320987654320988,0,0,0.04320987654320988,16.419753086419753,0)" xlink:href="#am"/><use transform="matrix(0.04320987654320988,0,0,0.04320987654320988,19.833333333333336,0)" xlink:href="#S"/><use transform="matrix(0.04320987654320988,0,0,0.04320987654320988,28.47530864197531,0)" xlink:href="#L"/></g><g id="q"><use transform="matrix(0.04320987654320988,0,0,0.04320987654320988,0,0)" xlink:href="#M"/><use transform="matrix(0.04320987654320988,0,0,0.04320987654320988,4.320987654320988,0)" xlink:href="#O"/><use transform="matrix(0.04320987654320988,0,0,0.04320987654320988,12.962962962962964,0)" xlink:href="#K"/></g><g id="r"><use transform="matrix(0.04320987654320988,0,0,0.04320987654320988,0,0)" xlink:href="#T"/><use transform="matrix(0.04320987654320988,0,0,0.04320987654320988,8.641975308641976,0)" xlink:href="#O"/><use transform="matrix(0.04320987654320988,0,0,0.04320987654320988,17.283950617283953,0)" xlink:href="#N"/></g><g id="s"><use transform="matrix(0.04320987654320988,0,0,0.04320987654320988,0,0)" xlink:href="#U"/><use transform="matrix(0.04320987654320988,0,0,0.04320987654320988,8.641975308641976,0)" xlink:href="#L"/><use transform="matrix(0.04320987654320988,0,0,0.04320987654320988,17.283950617283953,0)" xlink:href="#L"/><use transform="matrix(0.04320987654320988,0,0,0.04320987654320988,25.925925925925927,0)" xlink:href="#V"/></g><g id="t"><use transform="matrix(0.04320987654320988,0,0,0.04320987654320988,0,0)" xlink:href="#Q"/><use transform="matrix(0.04320987654320988,0,0,0.04320987654320988,4.320987654320988,0)" xlink:href="#P"/><use transform="matrix(0.04320987654320988,0,0,0.04320987654320988,12.962962962962964,0)" xlink:href="#S"/><use transform="matrix(0.04320987654320988,0,0,0.04320987654320988,21.604938271604944,0)" xlink:href="#V"/><use transform="matrix(0.04320987654320988,0,0,0.04320987654320988,30.24691358024692,0)" xlink:href="#X"/></g><g id="u"><use transform="matrix(0.04320987654320988,0,0,0.04320987654320988,0,0)" xlink:href="#O"/><use transform="matrix(0.04320987654320988,0,0,0.04320987654320988,8.641975308641976,0)" xlink:href="#V"/><use transform="matrix(0.04320987654320988,0,0,0.04320987654320988,17.283950617283953,0)" xlink:href="#X"/></g><g id="v"><use transform="matrix(0.04320987654320988,0,0,0.04320987654320988,0,0)" xlink:href="#W"/><use transform="matrix(0.04320987654320988,0,0,0.04320987654320988,5.1419753086419755,0)" xlink:href="#L"/><use transform="matrix(0.04320987654320988,0,0,0.04320987654320988,13.783950617283953,0)" xlink:href="#M"/><use transform="matrix(0.04320987654320988,0,0,0.04320987654320988,18.10493827160494,0)" xlink:href="#S"/><use transform="matrix(0.04320987654320988,0,0,0.04320987654320988,26.746913580246915,0)" xlink:href="#W"/><use transform="matrix(0.04320987654320988,0,0,0.04320987654320988,31.888888888888893,0)" xlink:href="#V"/></g><use transform="matrix(0.04320987654320988,0,0,0.04320987654320988,0,0)" xlink:href="#O" id="w"/><g id="x"><use transform="matrix(0.04320987654320988,0,0,0.04320987654320988,0,0)" xlink:href="#N"/><use transform="matrix(0.04320987654320988,0,0,0.04320987654320988,7.777777777777779,0)" xlink:href="#L"/><use transform="matrix(0.04320987654320988,0,0,0.04320987654320988,16.419753086419753,0)" xlink:href="#V"/><use transform="matrix(0.04320987654320988,0,0,0.04320987654320988,25.061728395061728,0)" xlink:href="#X"/></g><g id="y"><use transform="matrix(0.04320987654320988,0,0,0.04320987654320988,0,0)" xlink:href="#O"/><use transform="matrix(0.04320987654320988,0,0,0.04320987654320988,8.641975308641976,0)" xlink:href="#ak"/><use transform="matrix(0.04320987654320988,0,0,0.04320987654320988,16.419753086419753,0)" xlink:href="#ak"/><use transform="matrix(0.04320987654320988,0,0,0.04320987654320988,24.19753086419753,0)" xlink:href="#L"/><use transform="matrix(0.04320987654320988,0,0,0.04320987654320988,32.839506172839506,0)" xlink:href="#am"/><use transform="matrix(0.04320987654320988,0,0,0.04320987654320988,36.25308641975309,0)" xlink:href="#L"/><use transform="matrix(0.04320987654320988,0,0,0.04320987654320988,44.89506172839506,0)" xlink:href="#W"/><use transform="matrix(0.04320987654320988,0,0,0.04320987654320988,50.037037037037045,0)" xlink:href="#O"/><use transform="matrix(0.04320987654320988,0,0,0.04320987654320988,58.679012345679006,0)" xlink:href="#M"/><use transform="matrix(0.04320987654320988,0,0,0.04320987654320988,63,0)" xlink:href="#aj"/><use transform="matrix(0.04320987654320988,0,0,0.04320987654320988,66.41358024691358,0)" xlink:href="#P"/><use transform="matrix(0.04320987654320988,0,0,0.04320987654320988,75.05555555555556,0)" xlink:href="#V"/></g><g id="z"><use transform="matrix(0.04320987654320988,0,0,0.04320987654320988,0,0)" xlink:href="#P"/><use transform="matrix(0.04320987654320988,0,0,0.04320987654320988,8.641975308641976,0)" xlink:href="#W"/><use transform="matrix(0.04320987654320988,0,0,0.04320987654320988,13.783950617283953,0)" xlink:href="#aj"/><use transform="matrix(0.04320987654320988,0,0,0.04320987654320988,17.19753086419753,0)" xlink:href="#L"/><use transform="matrix(0.04320987654320988,0,0,0.04320987654320988,25.839506172839503,0)" xlink:href="#V"/><use transform="matrix(0.04320987654320988,0,0,0.04320987654320988,34.48148148148148,0)" xlink:href="#M"/><use transform="matrix(0.04320987654320988,0,0,0.04320987654320988,38.80246913580247,0)" xlink:href="#O"/><use transform="matrix(0.04320987654320988,0,0,0.04320987654320988,47.44444444444444,0)" xlink:href="#M"/><use transform="matrix(0.04320987654320988,0,0,0.04320987654320988,51.76543209876543,0)" xlink:href="#aj"/><use transform="matrix(0.04320987654320988,0,0,0.04320987654320988,55.179012345679006,0)" xlink:href="#P"/><use transform="matrix(0.04320987654320988,0,0,0.04320987654320988,63.82098765432099,0)" xlink:href="#V"/></g><g id="A"><use transform="matrix(0.05,0,0,0.05,0,0)" xlink:href="#Y"/><use transform="matrix(0.05,0,0,0.05,9,0)" xlink:href="#L"/><use transform="matrix(0.05,0,0,0.05,19,0)" xlink:href="#N"/></g><g id="B"><use transform="matrix(0.05,0,0,0.05,0,0)" xlink:href="#V"/><use transform="matrix(0.05,0,0,0.05,10,0)" xlink:href="#P"/></g><path d="M206 0h-36l-40-164L89 0H53L-1-190h32L70-26l43-164h34l41 164 42-164h31" id="an"/><g id="C"><use transform="matrix(0.04320987654320988,0,0,0.04320987654320988,0,0)" xlink:href="#an"/><use transform="matrix(0.04320987654320988,0,0,0.04320987654320988,11.19135802469136,0)" xlink:href="#O"/><use transform="matrix(0.04320987654320988,0,0,0.04320987654320988,19.833333333333336,0)" xlink:href="#aj"/><use transform="matrix(0.04320987654320988,0,0,0.04320987654320988,23.246913580246915,0)" xlink:href="#M"/></g><g id="D"><use transform="matrix(0.04320987654320988,0,0,0.04320987654320988,0,0)" xlink:href="#Q"/><use transform="matrix(0.04320987654320988,0,0,0.04320987654320988,4.320987654320988,0)" xlink:href="#P"/><use transform="matrix(0.04320987654320988,0,0,0.04320987654320988,12.962962962962964,0)" xlink:href="#W"/></g><g id="E"><use transform="matrix(0.04320987654320988,0,0,0.04320987654320988,0,0)" xlink:href="#N"/><use transform="matrix(0.04320987654320988,0,0,0.04320987654320988,7.777777777777779,0)" xlink:href="#L"/><use transform="matrix(0.04320987654320988,0,0,0.04320987654320988,16.419753086419753,0)" xlink:href="#W"/><use transform="matrix(0.04320987654320988,0,0,0.04320987654320988,21.561728395061728,0)" xlink:href="#aj"/><use transform="matrix(0.04320987654320988,0,0,0.04320987654320988,24.97530864197531,0)" xlink:href="#O"/><use transform="matrix(0.04320987654320988,0,0,0.04320987654320988,33.617283950617285,0)" xlink:href="#am"/></g><g id="F"><use transform="matrix(0.04320987654320988,0,0,0.04320987654320988,0,0)" xlink:href="#aj"/><use transform="matrix(0.04320987654320988,0,0,0.04320987654320988,3.4135802469135808,0)" xlink:href="#V"/><use transform="matrix(0.04320987654320988,0,0,0.04320987654320988,12.055555555555557,0)" xlink:href="#R"/><use transform="matrix(0.04320987654320988,0,0,0.04320987654320988,20.69753086419753,0)" xlink:href="#S"/><use transform="matrix(0.04320987654320988,0,0,0.04320987654320988,29.339506172839503,0)" xlink:href="#M"/></g><g id="G"><use transform="matrix(0.04320987654320988,0,0,0.04320987654320988,0,0)" xlink:href="#ak"/><use transform="matrix(0.04320987654320988,0,0,0.04320987654320988,7.777777777777779,0)" xlink:href="#W"/><use transform="matrix(0.04320987654320988,0,0,0.04320987654320988,12.919753086419751,0)" xlink:href="#L"/><use transform="matrix(0.04320987654320988,0,0,0.04320987654320988,21.561728395061728,0)" xlink:href="#O"/><use transform="matrix(0.04320987654320988,0,0,0.04320987654320988,30.203703703703702,0)" xlink:href="#M"/><use transform="matrix(0.04320987654320988,0,0,0.04320987654320988,34.52469135802469,0)" xlink:href="#L"/></g><g id="H"><use transform="matrix(0.04320987654320988,0,0,0.04320987654320988,0,0)" xlink:href="#N"/><use transform="matrix(0.04320987654320988,0,0,0.04320987654320988,7.777777777777779,0)" xlink:href="#P"/><use transform="matrix(0.04320987654320988,0,0,0.04320987654320988,16.419753086419753,0)" xlink:href="#S"/><use transform="matrix(0.04320987654320988,0,0,0.04320987654320988,25.061728395061728,0)" xlink:href="#V"/><use transform="matrix(0.04320987654320988,0,0,0.04320987654320988,33.7037037037037,0)" xlink:href="#X"/></g><path fill="#666" d="M205 0l-28-72H64L36 0H1l101-248h38L239 0h-34zm-38-99l-47-123c-12 45-31 82-46 123h93" id="ao"/><use transform="matrix(0.05,0,0,0.05,0,0)" xlink:href="#ao" id="I"/><g id="J"><use transform="matrix(0.04320987654320988,0,0,0.04320987654320988,0,0)" xlink:href="#N"/><use transform="matrix(0.04320987654320988,0,0,0.04320987654320988,7.777777777777779,0)" xlink:href="#L"/><use transform="matrix(0.04320987654320988,0,0,0.04320987654320988,16.419753086419753,0)" xlink:href="#W"/><use transform="matrix(0.04320987654320988,0,0,0.04320987654320988,21.561728395061728,0)" xlink:href="#aj"/><use transform="matrix(0.04320987654320988,0,0,0.04320987654320988,24.97530864197531,0)" xlink:href="#O"/><use transform="matrix(0.04320987654320988,0,0,0.04320987654320988,33.617283950617285,0)" xlink:href="#am"/></g></defs></g></svg>